<svg width="55" height="55" viewBox="0 0 55 55" fill="none" xmlns="http://www.w3.org/2000/svg">
<rect x="0.75" y="0.466675" width="54" height="54" rx="27" fill="#0081E2"/>
<path d="M29 36.4667V38.4667H27V36.4667H19C18.4477 36.4667 18 36.019 18 35.4667V19.4667C18 18.9144 18.4477 18.4667 19 18.4667H25C26.1947 18.4667 27.2671 18.9904 28 19.8209C28.7329 18.9904 29.8053 18.4667 31 18.4667H37C37.5523 18.4667 38 18.9144 38 19.4667V35.4667C38 36.019 37.5523 36.4667 37 36.4667H29ZM36 34.4667V20.4667H31C29.8954 20.4667 29 21.3621 29 22.4667V34.4667H36ZM27 34.4667V22.4667C27 21.3621 26.1046 20.4667 25 20.4667H20V34.4667H27Z" fill="white"/>
</svg>
