<svg width="55" height="55" viewBox="0 0 55 55" fill="none" xmlns="http://www.w3.org/2000/svg">
<rect x="0.25" y="0.466675" width="54" height="54" rx="27" fill="#0081E2"/>
<path d="M27 37.4667C21.4771 37.4667 17 32.9895 17 27.4667C17 21.9438 21.4771 17.4667 27 17.4667C32.5228 17.4667 37 21.9438 37 27.4667C37 32.9895 32.5228 37.4667 27 37.4667ZM24.71 35.1341C23.7474 33.0926 23.1573 30.8409 23.0273 28.4667H19.0619C19.458 31.6432 21.7164 34.2414 24.71 35.1341ZM25.0307 28.4667C25.1811 30.9055 25.8778 33.1964 27 35.2187C28.1222 33.1964 28.8189 30.9055 28.9693 28.4667H25.0307ZM34.9381 28.4667H30.9727C30.8427 30.8409 30.2526 33.0926 29.29 35.1341C32.2836 34.2414 34.542 31.6432 34.9381 28.4667ZM19.0619 26.4667H23.0273C23.1573 24.0924 23.7474 21.8407 24.71 19.7992C21.7164 20.692 19.458 23.2902 19.0619 26.4667ZM25.0307 26.4667H28.9693C28.8189 24.0279 28.1222 21.7369 27 19.7147C25.8778 21.7369 25.1811 24.0279 25.0307 26.4667ZM29.29 19.7992C30.2526 21.8407 30.8427 24.0924 30.9727 26.4667H34.9381C34.542 23.2902 32.2836 20.692 29.29 19.7992Z" fill="white"/>
</svg>
