<svg width="55" height="55" viewBox="0 0 55 55" fill="none" xmlns="http://www.w3.org/2000/svg">
<rect x="0.75" y="0.466675" width="54" height="54" rx="27" fill="#0081E2"/>
<path d="M27.9998 18.4667C26.3429 18.4667 24.9998 19.8098 24.9998 21.4667V25.4667C24.9998 27.1236 26.3429 28.4667 27.9998 28.4667C29.6566 28.4667 30.9998 27.1236 30.9998 25.4667V21.4667C30.9998 19.8098 29.6566 18.4667 27.9998 18.4667ZM27.9998 16.4667C30.7612 16.4667 32.9998 18.7053 32.9998 21.4667V25.4667C32.9998 28.2281 30.7612 30.4667 27.9998 30.4667C25.2383 30.4667 22.9998 28.2281 22.9998 25.4667V21.4667C22.9998 18.7053 25.2383 16.4667 27.9998 16.4667ZM19.0547 26.4667H21.0706C21.5559 29.859 24.4733 32.4667 27.9998 32.4667C31.5262 32.4667 34.4436 29.859 34.9289 26.4667H36.9448C36.4837 30.6383 33.1714 33.9506 28.9998 34.4118V38.4667H26.9998V34.4118C22.8281 33.9506 19.5158 30.6383 19.0547 26.4667Z" fill="white"/>
</svg>
