<svg width="55" height="55" viewBox="0 0 55 55" fill="none" xmlns="http://www.w3.org/2000/svg">
<rect x="0.25" y="0.466675" width="54" height="54" rx="27" fill="#0081E2"/>
<path d="M25.9393 28.2448C25.3536 27.6591 25.3536 26.7093 25.9393 26.1235C26.5251 25.5377 27.4749 25.5377 28.0607 26.1235C28.6464 26.7093 28.6464 27.6591 28.0607 28.2448C27.4749 28.8306 26.5251 28.8306 25.9393 28.2448ZM20.2825 20.4667L21.6967 21.8809C18.7678 24.8098 18.7678 29.5586 21.6967 32.4875L20.2825 33.9017C16.5725 30.1917 16.5725 24.1767 20.2825 20.4667ZM33.7175 20.4667C37.4275 24.1767 37.4275 30.1917 33.7175 33.9017L32.3033 32.4875C35.2322 29.5586 35.2322 24.8098 32.3033 21.8809L33.7175 20.4667ZM23.1109 23.2951L24.5251 24.7093C23.1583 26.0762 23.1583 28.2922 24.5251 29.6591L23.1109 31.0733C20.963 28.9254 20.963 25.443 23.1109 23.2951ZM30.8891 23.2951C33.037 25.443 33.037 28.9254 30.8891 31.0733L29.4749 29.6591C30.8417 28.2922 30.8417 26.0762 29.4749 24.7093L30.8891 23.2951Z" fill="white"/>
</svg>
