<svg width="18" height="12" viewBox="0 0 18 12" fill="none" xmlns="http://www.w3.org/2000/svg">
<path d="M17 6.96C17.5302 6.96 17.96 6.53019 17.96 6C17.96 5.46981 17.5302 5.04 17 5.04V6V6.96ZM1 5.04C0.469807 5.04 0.0400004 5.46981 0.0400004 6C0.0400004 6.53019 0.469807 6.96 1 6.96V6V5.04ZM4.32421 11.6818C4.70078 12.0551 5.30862 12.0524 5.68184 11.6758C6.05507 11.2992 6.05236 10.6914 5.67579 10.3182L5 11L4.32421 11.6818ZM3.23703 9.25269L3.91282 8.57085L3.23703 9.25269ZM3.23703 2.74731L2.56124 2.06546H2.56124L3.23703 2.74731ZM5.67579 1.68184C6.05236 1.30862 6.05507 0.700785 5.68185 0.324213C5.30862 -0.0523595 4.70079 -0.0550714 4.32421 0.318156L5 1L5.67579 1.68184ZM1.01989 6.31333L0.0675942 6.43471L0.0675943 6.43471L1.01989 6.31333ZM1.01989 5.68667L0.0675944 5.56528L0.0675943 5.56529L1.01989 5.68667ZM17 6V5.04H1V6V6.96H17V6ZM5 11L5.67579 10.3182L3.91282 8.57085L3.23703 9.25269L2.56124 9.93454L4.32421 11.6818L5 11ZM3.23703 2.74731L3.91282 3.42915L5.67579 1.68184L5 1L4.32421 0.318156L2.56124 2.06546L3.23703 2.74731ZM3.23703 9.25269L3.91282 8.57085C3.19382 7.85823 2.71321 7.37985 2.39033 6.9778C2.07961 6.59089 1.99473 6.36885 1.97219 6.19195L1.01989 6.31333L0.0675943 6.43471C0.153287 7.10701 0.474016 7.65792 0.893321 8.18004C1.30046 8.687 1.87431 9.25371 2.56124 9.93454L3.23703 9.25269ZM3.23703 2.74731L2.56124 2.06546C1.87431 2.74629 1.30046 3.313 0.893321 3.81996C0.474016 4.34208 0.153287 4.89299 0.0675944 5.56528L1.01989 5.68667L1.97219 5.80805C1.99473 5.63115 2.07961 5.40911 2.39033 5.0222C2.71321 4.62015 3.19382 4.14177 3.91282 3.42915L3.23703 2.74731ZM1.01989 6.31333L1.97219 6.19195C1.95594 6.06448 1.95594 5.93551 1.97219 5.80805L1.01989 5.68667L0.0675943 5.56529C0.0308018 5.85394 0.0308019 6.14606 0.0675942 6.43471L1.01989 6.31333Z" fill="white"/>
</svg>
