<svg width="14" height="16" viewBox="0 0 14 16" fill="none" xmlns="http://www.w3.org/2000/svg">
<path d="M10.75 2H12.25C12.6478 2 13.0294 2.15804 13.3107 2.43934C13.592 2.72064 13.75 3.10218 13.75 3.5V14C13.75 14.3978 13.592 14.7794 13.3107 15.0607C13.0294 15.342 12.6478 15.5 12.25 15.5H1.75C1.35218 15.5 0.970644 15.342 0.68934 15.0607C0.408035 14.7794 0.25 14.3978 0.25 14V3.5C0.25 2.675 0.925 2 1.75 2H3.25V1.25C3.25 1.05109 3.32902 0.860322 3.46967 0.71967C3.61032 0.579018 3.80109 0.5 4 0.5C4.19891 0.5 4.38968 0.579018 4.53033 0.71967C4.67098 0.860322 4.75 1.05109 4.75 1.25V2H9.25V1.25C9.25 1.05109 9.32902 0.860322 9.46967 0.71967C9.61032 0.579018 9.80109 0.5 10 0.5C10.1989 0.5 10.3897 0.579018 10.5303 0.71967C10.671 0.860322 10.75 1.05109 10.75 1.25V2ZM9.25 3.5H4.75V4.25C4.75 4.44891 4.67098 4.63968 4.53033 4.78033C4.38968 4.92098 4.19891 5 4 5C3.80109 5 3.61032 4.92098 3.46967 4.78033C3.32902 4.63968 3.25 4.44891 3.25 4.25V3.5H1.75V6.5H12.25V3.5H10.75V4.25C10.75 4.44891 10.671 4.63968 10.5303 4.78033C10.3897 4.92098 10.1989 5 10 5C9.80109 5 9.61032 4.92098 9.46967 4.78033C9.32902 4.63968 9.25 4.44891 9.25 4.25V3.5ZM12.25 8H1.75V14H12.25V8Z" fill="#FFA268"/>
</svg>
