<svg width="19" height="14" viewBox="0 0 19 14" fill="none" xmlns="http://www.w3.org/2000/svg">
<path d="M13.6668 4.66732L18.0112 1.62624C18.1997 1.49428 18.4596 1.54013 18.5915 1.72865C18.6405 1.79868 18.6668 1.8821 18.6668 1.96759V12.0337C18.6668 12.2638 18.4802 12.4504 18.2502 12.4504C18.1647 12.4504 18.0812 12.4241 18.0112 12.3751L13.6668 9.33399V12.834C13.6668 13.2942 13.2937 13.6673 12.8335 13.6673H1.16683C0.706596 13.6673 0.333496 13.2942 0.333496 12.834V1.16732C0.333496 0.707084 0.706596 0.333984 1.16683 0.333984H12.8335C13.2937 0.333984 13.6668 0.707084 13.6668 1.16732V4.66732ZM13.6668 7.29957L17.0002 9.6329V4.36841L13.6668 6.70174V7.29957ZM2.00016 2.00065V12.0007H12.0002V2.00065H2.00016Z" fill="white"/>
</svg>
