<svg width="18" height="18" viewBox="0 0 18 18" fill="none" xmlns="http://www.w3.org/2000/svg">
<path d="M8.99984 17.3335C4.39746 17.3335 0.666504 13.6025 0.666504 9.0002C0.666504 4.39783 4.39746 0.66687 8.99984 0.66687C13.6022 0.66687 17.3332 4.39783 17.3332 9.0002C17.3332 13.6025 13.6022 17.3335 8.99984 17.3335ZM8.99984 15.6669C12.6818 15.6669 15.6665 12.6821 15.6665 9.0002C15.6665 5.3183 12.6818 2.33354 8.99984 2.33354C5.31794 2.33354 2.33317 5.3183 2.33317 9.0002C2.33317 12.6821 5.31794 15.6669 8.99984 15.6669ZM9.83317 9.0002H13.1665V10.6669H8.1665V4.83354H9.83317V9.0002Z" fill="#84869F"/>
</svg>
