<svg width="19" height="18" viewBox="0 0 19 18" fill="none" xmlns="http://www.w3.org/2000/svg">
<path d="M16.5 10.5V13H19V14.6667H16.5V17.1667H14.8334V14.6667H12.3334V13H14.8334V10.5H16.5ZM16.5069 0.5C16.9634 0.5 17.3334 0.870792 17.3334 1.32783V8.83333H15.6667V2.16667H2.33335V13.8325L10.6667 5.5L13.1667 8V10.3575L10.6667 7.857L4.68919 13.8333H10.6667V15.5H1.49319C1.03673 15.5 0.666687 15.1292 0.666687 14.6722V1.32783C0.666687 0.870633 1.04611 0.5 1.49319 0.5H16.5069ZM5.66669 3.83333C6.58716 3.83333 7.33335 4.57952 7.33335 5.5C7.33335 6.4205 6.58716 7.16667 5.66669 7.16667C4.74621 7.16667 4.00002 6.4205 4.00002 5.5C4.00002 4.57952 4.74621 3.83333 5.66669 3.83333Z" fill="white"/>
</svg>
