<svg width="20" height="20" viewBox="0 0 20 20" fill="none" xmlns="http://www.w3.org/2000/svg">
<path d="M5.58594 6.05469L5.59375 6.06445L7.21875 8.23242C7.37525 8.44232 7.46029 8.69715 7.46094 8.95898V17.5391H12.5391V8.95898L12.543 8.86133C12.5617 8.63415 12.6442 8.4162 12.7812 8.23242L14.4062 6.06445L14.4141 6.05469V5.58594H5.58594V6.05469ZM10 8.78906C10.1554 8.78906 10.3042 8.85105 10.4141 8.96094C10.5239 9.07082 10.5859 9.2196 10.5859 9.375V11.875C10.5859 12.0304 10.5239 12.1792 10.4141 12.2891C10.3042 12.3989 10.1554 12.4609 10 12.4609C9.8446 12.4609 9.69582 12.3989 9.58594 12.2891C9.47605 12.1792 9.41406 12.0304 9.41406 11.875V9.375C9.41406 9.2196 9.47605 9.07082 9.58594 8.96094C9.69582 8.85105 9.8446 8.78906 10 8.78906ZM5.58594 4.41406H14.4141V2.46094H5.58594V4.41406ZM6.28906 8.94531L6.28125 8.93555L4.65625 6.76758C4.49975 6.55768 4.41471 6.30285 4.41406 6.04102V2.5C4.41406 2.17884 4.54146 1.87065 4.76855 1.64355C4.99565 1.41646 5.30384 1.28906 5.625 1.28906H14.375C14.6962 1.28906 15.0044 1.41646 15.2314 1.64355C15.4585 1.87065 15.5859 2.17884 15.5859 2.5V6.04102C15.5853 6.30285 15.5003 6.55768 15.3438 6.76758L13.7188 8.93555L13.7109 8.94531V17.5C13.7109 17.8212 13.5835 18.1294 13.3564 18.3564C13.1294 18.5835 12.8212 18.7109 12.5 18.7109H7.5C7.17884 18.7109 6.87065 18.5835 6.64355 18.3564C6.41646 18.1294 6.28906 17.8212 6.28906 17.5V8.94531Z" fill="white" stroke="white" stroke-width="0.078125"/>
<path d="M2.5 4.5L17.5 15" stroke="white" stroke-width="1.3" stroke-linecap="round"/>
</svg>
