<svg width="18" height="16" viewBox="0 0 18 16" fill="none" xmlns="http://www.w3.org/2000/svg">
<path d="M1.49969 0.916992H7.50555L9.05048 2.46094L9.17255 2.58301H16.4997C16.7298 2.58301 16.9167 2.76988 16.9167 3V14.667C16.9165 14.897 16.7297 15.083 16.4997 15.083H1.49969C1.26983 15.0828 1.08386 14.8969 1.08368 14.667V1.33301C1.08386 1.10315 1.26984 0.917168 1.49969 0.916992ZM1.91669 14.25H16.0837V3.41699H8.82782L7.16083 1.75H1.91669V14.25ZM13.2214 11.75H5.95966L10.5807 7.78906L13.2214 11.75ZM6.08368 5.91699C6.54377 5.91717 6.91669 6.28987 6.91669 6.75C6.91669 7.21011 6.54376 7.58283 6.08368 7.58301C5.62345 7.58301 5.24969 7.21022 5.24969 6.75C5.24969 6.28976 5.62344 5.91699 6.08368 5.91699Z" fill="white" stroke="white" stroke-width="0.833333"/>
</svg>
