<svg width="54" height="54" viewBox="0 0 54 54" fill="none" xmlns="http://www.w3.org/2000/svg">
<rect width="54" height="54" rx="27" fill="#FFF3EC"/>
<g clip-path="url(#clip0_20_11033)">
<path d="M35 29.5V32H37.5V33.6667H35V36.1667H33.3334V33.6667H30.8334V32H33.3334V29.5H35ZM35.0069 19.5C35.4634 19.5 35.8334 19.8708 35.8334 20.3278V27.8333H34.1667V21.1667H20.8334V32.8325L29.1667 24.5L31.6667 27V29.3575L29.1667 26.857L23.1892 32.8333H29.1667V34.5H19.9932C19.5367 34.5 19.1667 34.1292 19.1667 33.6722V20.3278C19.1667 19.8706 19.5461 19.5 19.9932 19.5H35.0069ZM24.1667 22.8333C25.0872 22.8333 25.8334 23.5795 25.8334 24.5C25.8334 25.4205 25.0872 26.1667 24.1667 26.1667C23.2462 26.1667 22.5 25.4205 22.5 24.5C22.5 23.5795 23.2462 22.8333 24.1667 22.8333Z" fill="#CB6B34"/>
</g>
<defs>
<clipPath id="clip0_20_11033">
<rect width="20" height="20" fill="white" transform="translate(17.5 17)"/>
</clipPath>
</defs>
</svg>
