<svg width="24" height="24" viewBox="0 0 24 24" fill="none" xmlns="http://www.w3.org/2000/svg">
<path d="M6.93912 14.0322C6.7072 14.6557 6.51032 15.2325 6.33421 15.8149C7.29345 15.1183 8.43544 14.6761 9.75193 14.5115C12.2652 14.1974 14.4976 12.5379 15.6279 10.4531L14.1721 8.99828L15.5848 7.58357C15.9185 7.24944 16.2521 6.91554 16.5858 6.58188C17.0151 6.15252 17.5 5.35789 18.0129 4.2143C12.4197 5.08122 8.99484 8.50587 6.93912 14.0322ZM17 8.99679L18 9.99609C17 12.9961 14 15.9961 10 16.4961C7.33146 16.8297 5.66421 18.663 4.99824 21.9961H3C4 15.9961 6 1.99609 21 1.99609C20.0009 4.99342 19.0018 6.99253 18.0027 7.99342C17.6662 8.32989 17.3331 8.66322 17 8.99679Z" fill="#0067B5"/>
</svg>
