<svg width="20" height="20" viewBox="0 0 20 20" fill="none" xmlns="http://www.w3.org/2000/svg">
<path d="M10 2.66602L15.4779 3.88334C15.783 3.95112 16 4.22166 16 4.53413V11.1919C16 12.5293 15.3316 13.7783 14.2188 14.5201L10 17.3327L5.7812 14.5201C4.66841 13.7783 4 12.5293 4 11.1919V4.53413C4 4.22166 4.21702 3.95112 4.52205 3.88334L10 2.66602ZM10 4.03188L5.33333 5.06891V11.1919C5.33333 12.0835 5.77893 12.9161 6.5208 13.4107L10 15.7302L13.4792 13.4107C14.2211 12.9161 14.6667 12.0835 14.6667 11.1919V5.06891L10 4.03188ZM10 6.66602C10.7364 6.66602 11.3333 7.26297 11.3333 7.99935C11.3333 8.49258 11.0655 8.92322 10.6674 9.15388L10.6667 11.9993H9.33333L9.33327 9.15428C8.9348 8.92375 8.66667 8.49285 8.66667 7.99935C8.66667 7.26297 9.2636 6.66602 10 6.66602Z" fill="white"/>
</svg>
