<svg width="20" height="20" viewBox="0 0 20 20" fill="none" xmlns="http://www.w3.org/2000/svg">
<path d="M12.3346 15.3359C11.8955 16.3887 11.053 17.2313 10.0001 17.6704C8.94715 17.2313 8.10461 16.3887 7.66552 15.3359H9.17175C9.38928 15.6616 9.67015 15.9441 10.0001 16.1647C10.33 15.9441 10.6109 15.6616 10.8284 15.3359H12.3346ZM14.0001 11.8723L15.3334 13.3845V14.6692H4.66675V13.3845L6.00008 11.8723V8.00252C6.00008 5.68035 7.66969 3.70481 10.0001 2.97266C12.3305 3.70481 14.0001 5.68035 14.0001 8.00252V11.8723ZM13.5129 13.3359L12.6667 12.3762V8.00252C12.6667 6.45729 11.6195 5.04887 10.0001 4.38856C8.3806 5.04887 7.33341 6.45729 7.33341 8.00252V12.3762L6.48725 13.3359H13.5129ZM10.0001 9.33586C9.26368 9.33586 8.66675 8.73886 8.66675 8.00252C8.66675 7.26614 9.26368 6.66918 10.0001 6.66918C10.7365 6.66918 11.3334 7.26614 11.3334 8.00252C11.3334 8.73886 10.7365 9.33586 10.0001 9.33586Z" fill="white"/>
</svg>
