<svg width="20" height="20" viewBox="0 0 20 20" fill="none" xmlns="http://www.w3.org/2000/svg">
<path d="M9.99992 15.334H15.3333V16.6673H9.99992C6.31802 16.6673 3.33325 13.6825 3.33325 10.0007C3.33325 6.31875 6.31802 3.33398 9.99992 3.33398C13.6818 3.33398 16.6666 6.31875 16.6666 10.0007C16.6666 11.5015 16.1707 12.8865 15.3337 14.0007H13.5277C14.6349 13.0234 15.3333 11.5936 15.3333 10.0007C15.3333 7.05513 12.9455 4.66732 9.99992 4.66732C7.0544 4.66732 4.66659 7.05513 4.66659 10.0007C4.66659 12.9462 7.0544 15.334 9.99992 15.334ZM9.99992 8.66732C9.26352 8.66732 8.66658 8.07036 8.66658 7.33398C8.66658 6.5976 9.26352 6.00065 9.99992 6.00065C10.7363 6.00065 11.3333 6.5976 11.3333 7.33398C11.3333 8.07036 10.7363 8.66732 9.99992 8.66732ZM7.33325 11.334C6.59687 11.334 5.99992 10.7371 5.99992 10.0007C5.99992 9.26425 6.59687 8.66732 7.33325 8.66732C8.06963 8.66732 8.66658 9.26425 8.66658 10.0007C8.66658 10.7371 8.06963 11.334 7.33325 11.334ZM12.6666 11.334C11.9302 11.334 11.3333 10.7371 11.3333 10.0007C11.3333 9.26425 11.9302 8.66732 12.6666 8.66732C13.403 8.66732 13.9999 9.26425 13.9999 10.0007C13.9999 10.7371 13.403 11.334 12.6666 11.334ZM9.99992 14.0007C9.26352 14.0007 8.66658 13.4037 8.66658 12.6673C8.66658 11.9309 9.26352 11.334 9.99992 11.334C10.7363 11.334 11.3333 11.9309 11.3333 12.6673C11.3333 13.4037 10.7363 14.0007 9.99992 14.0007Z" fill="white"/>
</svg>
