<svg width="19" height="18" viewBox="0 0 19 18" fill="none" xmlns="http://www.w3.org/2000/svg">
<path d="M15.5 2.25C15.9142 2.25 16.25 2.58579 16.25 3V4.31775L14.75 5.81775V3.75H4.25V9.825L7.25 6.82538L10.496 10.0717L9.4349 11.1316L7.25 8.94667L4.25 11.946V14.25H12.1497L12.681 14.2509L13.6775 13.2533L14.6746 14.25H14.75V12.1815L16.25 10.6815V15C16.25 15.4142 15.9142 15.75 15.5 15.75H3.5C3.0875 15.75 2.75 15.4125 2.75 15V3C2.75 2.58579 3.08579 2.25 3.5 2.25H15.5ZM16.8337 5.85571L17.8943 6.91637L12.0606 12.75L10.9984 12.7484L11 11.6894L16.8337 5.85571ZM12.125 5.25C12.7463 5.25 13.25 5.75368 13.25 6.375C13.25 6.99632 12.7463 7.5 12.125 7.5C11.5037 7.5 11 6.99632 11 6.375C11 5.75368 11.5037 5.25 12.125 5.25Z" fill="white"/>
</svg>
