<svg width="26" height="26" viewBox="0 0 26 26" fill="none" xmlns="http://www.w3.org/2000/svg">
<rect width="26" height="26" rx="13" fill="white" fill-opacity="0.1"/>
<path d="M13.2721 11C12.1672 11 11.2721 11.8954 11.2721 13C11.2721 14.1049 12.1675 15 13.2721 15C14.377 15 15.2721 14.1046 15.2721 13C15.2721 11.8952 14.3767 11 13.2721 11ZM13.2721 9.66671C15.1124 9.66671 16.6055 11.1581 16.6055 13C16.6055 14.8404 15.1141 16.3334 13.2721 16.3334C11.4318 16.3334 9.9388 14.842 9.9388 13C9.9388 11.1597 11.4302 9.66671 13.2721 9.66671ZM17.6055 9.49947C17.6055 9.95955 17.2316 10.3328 16.7721 10.3328C16.3121 10.3328 15.9388 9.95897 15.9388 9.49947C15.9388 9.03997 16.3126 8.66671 16.7721 8.66671C17.231 8.66613 17.6055 9.03997 17.6055 9.49947ZM13.2721 7.66671C11.6225 7.66671 11.3536 7.67107 10.5863 7.70524C10.0636 7.72978 9.71317 7.80009 9.38759 7.92649C9.09826 8.0387 8.88954 8.17269 8.66716 8.39507C8.44393 8.61831 8.31018 8.82646 8.19842 9.11593C8.07172 9.44225 8.00144 9.79211 7.97734 10.3141C7.94284 11.0502 7.9388 11.3074 7.9388 13C7.9388 14.6497 7.94317 14.9186 7.97733 15.6858C8.00188 16.2083 8.07228 16.5592 8.19838 16.884C8.31088 17.1738 8.44515 17.383 8.66646 17.6043C8.89057 17.8281 9.09934 17.9623 9.38606 18.073C9.71561 18.2004 10.0658 18.2708 10.5862 18.2948C11.3223 18.3293 11.5795 18.3334 13.2721 18.3334C14.9218 18.3334 15.1907 18.329 15.9579 18.2948C16.4793 18.2704 16.8305 18.1998 17.1561 18.0738C17.4451 17.9616 17.6549 17.8268 17.8764 17.6057C18.1005 17.3812 18.2345 17.173 18.3453 16.8856C18.4723 16.5572 18.5429 16.2066 18.5669 15.686C18.6014 14.9499 18.6055 14.6926 18.6055 13C18.6055 11.3504 18.6011 11.0815 18.5669 10.3143C18.5424 9.79275 18.4718 9.44103 18.3457 9.11549C18.2337 8.82696 18.0993 8.61761 17.8771 8.39507C17.6535 8.17147 17.4459 8.03799 17.1562 7.92632C16.8301 7.79973 16.4797 7.72935 15.958 7.70525C15.222 7.67074 14.9647 7.66671 13.2721 7.66671ZM13.2721 6.33337C15.0832 6.33337 15.3093 6.34004 16.0205 6.37337C16.7299 6.40615 17.2138 6.51837 17.6388 6.68337C18.0782 6.85282 18.4493 7.08171 18.8199 7.45226C19.1899 7.82282 19.4188 8.19504 19.5888 8.63337C19.7532 9.05782 19.8655 9.54226 19.8988 10.2517C19.9305 10.9628 19.9388 11.1889 19.9388 13C19.9388 14.8112 19.9321 15.0372 19.8988 15.7484C19.866 16.4578 19.7532 16.9417 19.5888 17.3667C19.4193 17.8062 19.1899 18.1772 18.8199 18.5478C18.4493 18.9178 18.0765 19.1467 17.6388 19.3167C17.2138 19.4812 16.7299 19.5934 16.0205 19.6267C15.3093 19.6584 15.0832 19.6667 13.2721 19.6667C11.461 19.6667 11.2349 19.66 10.5238 19.6267C9.81436 19.5939 9.33102 19.4812 8.90547 19.3167C8.46658 19.1472 8.09491 18.9178 7.72436 18.5478C7.3538 18.1772 7.12547 17.8045 6.95547 17.3667C6.79047 16.9417 6.6788 16.4578 6.64547 15.7484C6.6138 15.0372 6.60547 14.8112 6.60547 13C6.60547 11.1889 6.61214 10.9628 6.64547 10.2517C6.67824 9.54171 6.79047 9.05837 6.95547 8.63337C7.12491 8.19449 7.3538 7.82282 7.72436 7.45226C8.09491 7.08171 8.46714 6.85337 8.90547 6.68337C9.33047 6.51837 9.8138 6.40671 10.5238 6.37337C11.2349 6.34171 11.461 6.33337 13.2721 6.33337Z" fill="white"/>
</svg>
