<svg width="26" height="26" viewBox="0 0 26 26" fill="none" xmlns="http://www.w3.org/2000/svg">
<rect width="26" height="26" rx="13" fill="white" fill-opacity="0.1"/>
<path d="M10.3197 8.91658C10.3195 9.3916 10.0313 9.81905 9.59103 9.99738C9.15076 10.1757 8.64633 10.0693 8.3156 9.72836C7.98487 9.3874 7.89388 8.87996 8.08554 8.44533C8.2772 8.0107 8.71323 7.73567 9.18802 7.74992C9.81865 7.76885 10.32 8.28567 10.3197 8.91658ZM10.3547 10.9466H8.02136V18.2499H10.3547V10.9466ZM14.0414 10.9466H11.7197V18.2499H14.018V14.4174C14.018 12.2824 16.8005 12.0841 16.8005 14.4174V18.2499H19.1047V13.6241C19.1047 10.0249 14.9864 10.1591 14.018 11.9266L14.0414 10.9466Z" fill="white"/>
</svg>
