<svg width="17" height="21" viewBox="0 0 17 21" fill="none" xmlns="http://www.w3.org/2000/svg">
<path d="M8.50005 0C4.22248 0 0.742554 3.47992 0.742554 7.7575C0.742554 9.16571 1.37411 10.6802 1.40057 10.7441C1.60455 11.2283 2.00703 11.9803 2.29725 12.4211L7.61615 20.4802C7.83382 20.8106 8.15598 21 8.50005 21C8.84412 21 9.16628 20.8106 9.38395 20.4807L14.7033 12.4211C14.994 11.9803 15.396 11.2283 15.6 10.7441C15.6265 10.6807 16.2575 9.16617 16.2575 7.7575C16.2575 3.47992 12.7776 0 8.50005 0ZM14.7585 10.39C14.5765 10.824 14.2018 11.5235 13.9412 11.9187L8.62189 19.9783C8.51693 20.1375 8.48362 20.1375 8.37867 19.9783L3.05931 11.9187C2.79875 11.5235 2.4241 10.8235 2.24203 10.3896C2.23427 10.3709 1.6552 8.97679 1.6552 7.7575C1.6552 3.98325 4.7258 0.912647 8.50005 0.912647C12.2743 0.912647 15.3449 3.98325 15.3449 7.7575C15.3449 8.97862 14.7645 10.3763 14.7585 10.39Z" fill="#84869F"/>
<path d="M8.5001 3.65104C6.23537 3.65104 4.39319 5.49367 4.39319 7.75795C4.39319 10.0222 6.23537 11.8649 8.5001 11.8649C10.7648 11.8649 12.607 10.0222 12.607 7.75795C12.607 5.49367 10.7648 3.65104 8.5001 3.65104ZM8.5001 10.9522C6.73915 10.9522 5.30584 9.51936 5.30584 7.75795C5.30584 5.99654 6.73915 4.56369 8.5001 4.56369C10.2611 4.56369 11.6944 5.99654 11.6944 7.75795C11.6944 9.51936 10.2611 10.9522 8.5001 10.9522Z" fill="#84869F"/>
</svg>
