<svg width="44" height="58" viewBox="0 0 44 58" fill="none" xmlns="http://www.w3.org/2000/svg">
<path d="M22 36.2188C28.0521 36.2188 32.957 31.3719 32.957 25.3906V10.9531C32.957 4.97187 28.0521 0.125 22 0.125C15.9479 0.125 11.043 4.97187 11.043 10.9531V25.3906C11.043 31.3719 15.9479 36.2188 22 36.2188ZM43.2695 25.2617C43.2695 24.9781 43.0375 24.7461 42.7539 24.7461H38.8867C38.6031 24.7461 38.3711 24.9781 38.3711 25.2617C38.3711 34.3045 31.0428 41.6328 22 41.6328C12.9572 41.6328 5.62891 34.3045 5.62891 25.2617C5.62891 24.9781 5.39687 24.7461 5.11328 24.7461H1.24609C0.9625 24.7461 0.730469 24.9781 0.730469 25.2617C0.730469 36.135 8.89023 45.1068 19.4219 46.3766V52.9766H10.0568C9.17383 52.9766 8.46484 53.8982 8.46484 55.0391V57.3594C8.46484 57.643 8.64531 57.875 8.86445 57.875H35.1355C35.3547 57.875 35.5352 57.643 35.5352 57.3594V55.0391C35.5352 53.8982 34.8262 52.9766 33.9432 52.9766H24.3203V46.4088C34.9744 45.2486 43.2695 36.2252 43.2695 25.2617Z" fill="black"/>
</svg>
