<svg width="16" height="20" viewBox="0 0 16 20" fill="none" xmlns="http://www.w3.org/2000/svg">
<path d="M7.66657 2.50016C6.28582 2.50016 5.16654 3.61945 5.16654 5.00016V8.3335C5.16654 9.71425 6.28582 10.8335 7.66657 10.8335C9.04724 10.8335 10.1666 9.71425 10.1666 8.3335V5.00016C10.1666 3.61945 9.04724 2.50016 7.66657 2.50016ZM7.66657 0.833496C9.96774 0.833496 11.8332 2.69898 11.8332 5.00016V8.3335C11.8332 10.6347 9.96774 12.5002 7.66657 12.5002C5.36534 12.5002 3.49987 10.6347 3.49987 8.3335V5.00016C3.49987 2.69898 5.36534 0.833496 7.66657 0.833496ZM0.212311 9.16683H1.89228C2.29664 11.9937 4.72781 14.1668 7.66657 14.1668C10.6052 14.1668 13.0364 11.9937 13.4408 9.16683H15.1207C14.7365 12.6432 11.9762 15.4034 8.4999 15.7877V19.1668H6.83324V15.7877C3.35685 15.4034 0.596602 12.6432 0.212311 9.16683Z" fill="#CB6B34"/>
</svg>
