<svg width="21" height="20" viewBox="0 0 21 20" fill="none" xmlns="http://www.w3.org/2000/svg">
<path d="M20.5 10C20.5 4.47715 16.0228 0 10.5 0C7.22873 0 4.32434 1.57075 2.49989 3.99918L2.5 1.5H0.5V7.5H6.5V5.5L3.88451 5.50024C5.32447 3.38734 7.75022 2 10.5 2C14.9183 2 18.5 5.58172 18.5 10C18.5 14.4183 14.9183 18 10.5 18C6.08172 18 2.5 14.4183 2.5 10H0.5C0.5 15.5228 4.97715 20 10.5 20C16.0228 20 20.5 15.5228 20.5 10ZM9.2774 6.51823L13.876 9.584C14.1728 9.7819 14.1728 10.2181 13.876 10.416L9.2773 13.4818C8.9451 13.7033 8.5 13.4651 8.5 13.0657V6.93426C8.5 6.53491 8.9451 6.29672 9.2774 6.51823Z" fill="#84869F"/>
</svg>
