<svg width="59" height="58" viewBox="0 0 59 58" fill="none" xmlns="http://www.w3.org/2000/svg">
<rect x="0.5" width="58" height="58" rx="29" fill="#FE8641"/>
<path d="M36.9053 29.4161L26.3066 36.4818C26.0769 36.635 25.7664 36.5729 25.6133 36.3432C25.5585 36.261 25.5293 36.1645 25.5293 36.0658V21.9343C25.5293 21.6582 25.7532 21.4343 26.0293 21.4343C26.128 21.4343 26.2245 21.4635 26.3066 21.5183L36.9053 28.584C37.135 28.7372 37.1971 29.0477 37.0439 29.2774C37.0073 29.3323 36.9602 29.3795 36.9053 29.4161Z" fill="white"/>
<rect x="16" y="15" width="28" height="28" rx="14" fill="#FE8641"/>
<path d="M24 20H26V38H24V20ZM34 20H36V38H34V20Z" fill="white"/>
</svg>
