<svg width="16" height="12" viewBox="0 0 16 12" fill="none" xmlns="http://www.w3.org/2000/svg">
<path d="M14.8571 1.33333H11.9C11.6571 0.55 11.0286 0 10.2857 0C9.54286 0 8.91429 0.55 8.67143 1.33333H1.14286C0.514286 1.33333 0 1.93333 0 2.66667V10.6667C0 11.4 0.514286 12 1.14286 12H14.8571C15.4857 12 16 11.4 16 10.6667V2.66667C16 1.93333 15.4857 1.33333 14.8571 1.33333ZM7.42857 10.6667H5.71429V6.66667H7.42857V10.6667ZM8.57143 9.33333H10.2857V10.6667H8.57143V9.33333ZM8.57143 8V5.33333H4.57143V10.6667H3.42857V2.66667H8.68571C8.94286 3.51667 9.52857 4.55 9.81429 5.05L10.2857 5.83333L10.7571 5.03333C11.0429 4.55 11.6286 3.5 11.8857 2.65H12.5714V10.65H11.4286V8H8.57143ZM10.2857 1.33333C10.6 1.33333 10.8571 1.63333 10.8571 2C10.8571 2.2 10.6143 2.78333 10.2857 3.43333C9.95714 2.78333 9.71429 2.2 9.71429 2C9.71429 1.63333 9.97143 1.33333 10.2857 1.33333ZM1.14286 2.66667H2.28571V10.6667H1.14286V2.66667ZM14.8571 10.6667H13.7143V2.66667H14.8571V10.6667Z" fill="#FFA268"/>
</svg>
