<svg width="59" height="58" viewBox="0 0 59 58" fill="none" xmlns="http://www.w3.org/2000/svg">
<rect x="0.5" width="58" height="58" rx="29" fill="#FE8641"/>
<path d="M36.9053 29.4161L26.3066 36.4818C26.0769 36.635 25.7664 36.5729 25.6133 36.3432C25.5585 36.261 25.5293 36.1645 25.5293 36.0658V21.9343C25.5293 21.6582 25.7532 21.4343 26.0293 21.4343C26.128 21.4343 26.2245 21.4635 26.3066 21.5183L36.9053 28.584C37.135 28.7372 37.1971 29.0477 37.0439 29.2774C37.0073 29.3323 36.9602 29.3795 36.9053 29.4161Z" fill="white"/>
<rect x="16" y="15" width="28" height="28" rx="14" fill="#FE8641"/>
<path d="M35.5762 29.416L24.9775 36.4817C24.7478 36.6349 24.4373 36.5728 24.2842 36.3431C24.2294 36.2609 24.2002 36.1644 24.2002 36.0657V21.9342C24.2002 21.6581 24.4241 21.4342 24.7002 21.4342C24.7989 21.4342 24.8954 21.4635 24.9775 21.5182L35.5762 28.5839C35.8059 28.7371 35.868 29.0476 35.7148 29.2773C35.6782 29.3322 35.6311 29.3794 35.5762 29.416Z" fill="white"/>
</svg>
