<svg width="18" height="18" viewBox="0 0 18 18" fill="none" xmlns="http://www.w3.org/2000/svg">
<path d="M6.49996 0.833008V2.49967H11.5V0.833008H13.1666V2.49967H16.5C16.9602 2.49967 17.3333 2.87277 17.3333 3.33301V16.6663C17.3333 17.1266 16.9602 17.4997 16.5 17.4997H1.49996C1.03973 17.4997 0.666626 17.1266 0.666626 16.6663V3.33301C0.666626 2.87277 1.03973 2.49967 1.49996 2.49967H4.83329V0.833008H6.49996ZM15.6666 9.16634H2.33329V15.833H15.6666V9.16634ZM4.83329 4.16634H2.33329V7.49967H15.6666V4.16634H13.1666V5.83301H11.5V4.16634H6.49996V5.83301H4.83329V4.16634Z" fill="#FE8641"/>
</svg>
