<svg width="32" height="32" viewBox="0 0 32 32" fill="none" xmlns="http://www.w3.org/2000/svg">
<rect width="32" height="32" rx="16" fill="#F2F2F2" fill-opacity="0.1"/>
<path d="M9.58333 11.4163C9.58333 10.6569 10.1989 10.0413 10.9583 10.0413C11.7177 10.0413 12.3333 10.6569 12.3333 11.4163C12.3333 12.1757 11.7177 12.7913 10.9583 12.7913C10.1989 12.7913 9.58333 12.1757 9.58333 11.4163ZM10.9583 8.20801C9.18642 8.20801 7.75 9.64442 7.75 11.4163C7.75 13.1883 9.18642 14.6247 10.9583 14.6247C12.7302 14.6247 14.1667 13.1883 14.1667 11.4163C14.1667 9.64442 12.7302 8.20801 10.9583 8.20801ZM16 12.333H23.3333V10.4997H16V12.333ZM19.6667 20.583C19.6667 19.8236 20.2823 19.208 21.0417 19.208C21.801 19.208 22.4167 19.8236 22.4167 20.583C22.4167 21.3424 21.801 21.958 21.0417 21.958C20.2823 21.958 19.6667 21.3424 19.6667 20.583ZM21.0417 17.3747C19.2698 17.3747 17.8333 18.8111 17.8333 20.583C17.8333 22.3549 19.2698 23.7913 21.0417 23.7913C22.8136 23.7913 24.25 22.3549 24.25 20.583C24.25 18.8111 22.8136 17.3747 21.0417 17.3747ZM8.66667 19.6663V21.4997H16V19.6663H8.66667Z" fill="white"/>
</svg>
