<svg width="12" height="14" viewBox="0 0 12 14" fill="none" xmlns="http://www.w3.org/2000/svg">
<path d="M8.66667 4.49689V9.33331C8.66667 11.7266 6.7266 13.6666 4.33333 13.6666C1.9401 13.6666 0 11.7266 0 9.33331C0 6.94005 1.9401 4.99998 4.33333 4.99998C4.67753 4.99998 5.01233 5.04011 5.33333 5.11593V7.22451C5.03027 7.08051 4.6912 6.99998 4.33333 6.99998C3.04467 6.99998 2 8.04465 2 9.33331C2 10.622 3.04467 11.6666 4.33333 11.6666C5.622 11.6666 6.66667 10.622 6.66667 9.33331V0.333313H8.66667C8.66667 2.17426 10.1591 3.66665 12 3.66665V5.66665C10.7387 5.66665 9.57973 5.22883 8.66667 4.49689Z" fill="#F2F2F2"/>
</svg>
