<svg width="26" height="26" viewBox="0 0 26 26" fill="none" xmlns="http://www.w3.org/2000/svg">
<rect width="26" height="26" rx="13" fill="white" fill-opacity="0.1"/>
<path d="M15.2336 8.70003C14.1791 8.70003 13.3194 9.54539 13.3006 10.5977L13.2819 11.6477C13.2779 11.8686 13.0957 12.0445 12.8748 12.0405C12.8591 12.0403 12.8434 12.0391 12.8279 12.0369L11.7873 11.8951C10.4183 11.7083 9.10621 11.0782 7.84747 10.0294C7.44883 12.2359 8.22699 13.7648 10.1026 14.944L11.2673 15.6761C11.4543 15.7937 11.5106 16.0407 11.393 16.2277C11.3661 16.2705 11.3312 16.3079 11.2904 16.3378L10.2292 17.1131C10.8601 17.1527 11.4599 17.125 11.957 17.0258C15.1021 16.3982 17.1935 14.0313 17.1935 10.1274C17.1935 9.80867 16.5186 8.70003 15.2336 8.70003ZM11.9675 10.5739C11.9992 8.79723 13.4493 7.3667 15.2336 7.3667C16.1425 7.3667 16.9647 7.73789 17.5569 8.33693C18.0311 8.33337 18.4346 8.45327 19.336 7.90645C19.1132 9.00003 19.0026 9.47467 18.5268 10.1274C18.5268 15.2217 15.3954 17.6993 12.2179 18.3333C10.0395 18.7681 6.8713 18.0543 5.96387 17.1058C6.42615 17.0703 8.30651 16.868 9.39296 16.0728C8.47362 15.4658 4.81457 13.3121 7.21881 7.52428C8.34779 8.84205 9.49231 9.73903 10.6524 10.2152C11.424 10.532 11.6135 10.5257 11.9675 10.5739Z" fill="white"/>
</svg>
