<svg width="15" height="18" viewBox="0 0 15 18" fill="none" xmlns="http://www.w3.org/2000/svg">
<path d="M10 5.66667V2.33334H1.66667V15.6667H13.3333V5.66667H10ZM0 1.49317C0 1.03671 0.372908 0.666672 0.832083 0.666672H10.8333L14.9998 4.83334L15 16.4938C15 16.9574 14.6292 17.3333 14.1722 17.3333H0.827833C0.370633 17.3333 0 16.9539 0 16.5068V1.49317ZM6.66667 6.91667C6.66667 7.60701 6.107 8.16667 5.41667 8.16667C4.72631 8.16667 4.16667 7.60701 4.16667 6.91667C4.16667 6.22631 4.72631 5.66667 5.41667 5.66667C6.107 5.66667 6.66667 6.22631 6.66667 6.91667ZM12.0833 13.1667L8.75 7.33334L4.16667 13.1667H12.0833Z" fill="#CB6B34"/>
</svg>
